<?xml version="1.0" encoding="UTF-8"?>
<svg width="55px" height="58px" viewBox="0 0 55 58" version="1.1" xmlns="http://www.w3.org/2000/svg" xmlns:xlink="http://www.w3.org/1999/xlink">
    <!-- Generator: Sketch 61.2 (89653) - https://sketch.com -->
    <defs>
        <path d="M41.9323941,0.381435294 C42.4706882,0.381435294 42.9075657,0.811658824 42.9075657,1.34171912 L42.9075657,6.14326618 L51.6841063,6.14326618 C53.2970354,6.14326618 54.6096299,7.43585588 54.6096299,9.02420294 L54.6096299,47.4365922 C54.6096299,49.0249478 53.2970354,50.3175247 51.6841063,50.3175247 L32.1806732,50.3175247 L32.1806732,56.0793807 L35.1061882,56.0793807 L35.1061882,58 L19.5034374,58 L19.5034374,56.0793807 L22.4289524,56.0793807 L22.4289524,50.3175247 L2.92551583,50.3175247 C1.3125815,50.3175247 0,49.0249478 0,47.4365922 L0,9.02420294 C0,7.43585588 1.3125815,6.14326618 2.92551583,6.14326618 L11.7020642,6.14326618 L11.7020642,1.34171912 C11.7020642,0.811658824 12.1389417,0.381435294 12.6772358,0.381435294 L41.9323941,0.381435294 Z M30.2303299,50.3175247 L24.3793,50.3175247 L24.3793,56.0793807 L30.2303299,56.0793807 L30.2303299,50.3175247 Z M52.6592953,42.6350451 L1.95034374,42.6350451 L1.95034374,47.4365922 C1.95034374,47.9657228 2.38819614,48.3969016 2.92551583,48.3969016 L51.6841063,48.3969016 C52.2214173,48.3969016 52.6592953,47.9657228 52.6592953,47.4365922 L52.6592953,42.6350451 Z M20.4786091,44.555664 L20.4786091,46.4762828 L18.5282657,46.4762828 L18.5282657,44.555664 L20.4786091,44.555664 Z M36.0813598,44.555664 L36.0813598,46.4762828 L34.1310165,46.4762828 L34.1310165,44.555664 L36.0813598,44.555664 Z M32.1806732,44.555664 L32.1806732,46.4762828 L22.4289524,46.4762828 L22.4289524,44.555664 L32.1806732,44.555664 Z M51.6841063,8.06387647 L42.9075657,8.06387647 L42.9075657,9.98452941 L49.7337717,9.98452941 C50.2720787,9.98452941 50.7089606,10.4147529 50.7089606,10.9448132 L50.7089606,40.7144263 L52.6592953,40.7144263 L52.6592953,9.02420294 C52.6592953,8.49508088 52.2214173,8.06387647 51.6841063,8.06387647 Z M11.7020642,11.9051397 L5.85102992,11.9051397 L5.85102992,40.7144263 L48.7585827,40.7144263 L48.7585827,11.9051397 L42.9075657,11.9051397 L42.9075657,30.1510185 C42.9075657,30.6811087 42.4706882,31.1113279 41.9323941,31.1113279 L12.6772358,31.1113279 C12.1389417,31.1113279 11.7020642,30.6811087 11.7020642,30.1510185 L11.7020642,11.9051397 Z M11.7020642,8.06387647 L2.92551583,8.06387647 C2.38819614,8.06387647 1.95034374,8.49508088 1.95034374,9.02420294 L1.95034374,40.7144263 L3.90068748,40.7144263 L3.90068748,10.9448132 C3.90068748,10.4147529 4.33756417,9.98452941 4.87585827,9.98452941 L11.7020642,9.98452941 L11.7020642,8.06387647 Z M28.2799866,36.8731887 L28.2799866,38.7938075 L26.3296433,38.7938075 L26.3296433,36.8731887 L28.2799866,36.8731887 Z M32.1806732,36.8731887 L32.1806732,38.7938075 L30.2303299,38.7938075 L30.2303299,36.8731887 L32.1806732,36.8731887 Z M24.3793,36.8731887 L24.3793,38.7938075 L22.4289524,38.7938075 L22.4289524,36.8731887 L24.3793,36.8731887 Z M34.1310165,33.0319468 L34.1310165,34.9525699 L20.4786091,34.9525699 L20.4786091,33.0319468 L34.1310165,33.0319468 Z M23.404124,9.98452941 L13.6524075,9.98452941 L13.6524075,29.1907091 L40.9572224,29.1907091 L40.9572224,9.98452941 L31.2055016,9.98452941 L31.2055016,20.5479244 C31.2055016,20.9022788 31.0075406,21.2278209 30.6906106,21.3949163 C30.5462854,21.4707812 30.3883055,21.5082338 30.2303299,21.5082338 C30.0411472,21.5082338 29.852939,21.4544559 29.6891083,21.3469 L27.304815,19.7815951 L24.9195429,21.3469 C24.6201654,21.5428035 24.2349705,21.5610479 23.919015,21.3949163 C23.602085,21.2278209 23.404124,20.9022788 23.404124,20.5479244 L23.404124,9.98452941 Z M39.0068748,23.4288526 L39.0068748,27.2700903 L37.0565315,27.2700903 L37.0565315,23.4288526 L39.0068748,23.4288526 Z M35.1061882,23.4288526 L35.1061882,27.2700903 L33.1558449,27.2700903 L33.1558449,23.4288526 L35.1061882,23.4288526 Z M29.2551583,9.98452941 L25.3544717,9.98452941 L25.3544717,18.7531059 L26.7635933,17.8283257 C26.927424,17.7207699 27.1166067,17.6669919 27.304815,17.6669919 C27.4930232,17.6669919 27.6822059,17.7207699 27.8460323,17.8283257 L29.2551583,18.7531059 L29.2551583,9.98452941 Z M40.9572224,2.30204559 L32.1806732,2.30204559 L32.1806732,8.06387647 L40.9572224,8.06387647 L40.9572224,2.30204559 Z M30.2303299,2.30204559 L24.3793,2.30204559 L24.3793,8.06387647 L30.2303299,8.06387647 L30.2303299,2.30204559 Z M22.4289524,2.30204559 L13.6524075,2.30204559 L13.6524075,8.06387647 L22.4289524,8.06387647 L22.4289524,2.30204559 Z M17.5530941,4.22265588 L17.5530941,6.14326618 L15.6027508,6.14326618 L15.6027508,4.22265588 L17.5530941,4.22265588 Z M39.0068748,4.22265588 L39.0068748,6.14326618 L37.0565315,6.14326618 L37.0565315,4.22265588 L39.0068748,4.22265588 Z" id="path-1"></path>
    </defs>
    <g id="Page-1" stroke="none" stroke-width="1" fill="none" fill-rule="evenodd">
        <g id="Services" transform="translate(-95.000000, -420.000000)">
            <polygon id="Mask" fill="#060606" points="0 0 1366 0 1366 769 0 769"></polygon>
            <text id="enable-Seamless" opacity="0.149999991" font-family="Bison-ThickOutline, Bison" font-size="200" font-style="condensed" font-weight="700" line-spacing="170" fill="#727272">
                <tspan x="-21" y="512">enable Seamless</tspan>
            </text>
            <g id="Group-4" transform="translate(82.000000, 419.000000)">
                <g id="Group-37" transform="translate(13.000000, 0.000000)">
                    <g id="Group-3" transform="translate(0.000000, 0.682540)">
                        <mask id="mask-2" fill="white">
                            <use xlink:href="#path-1"></use>
                        </mask>
                        <use id="Combined-Shape" fill="#ECECEC" xlink:href="#path-1"></use>
                    </g>
                    <g id="Group-6" transform="translate(26.000000, 36.682540)"></g>
                    <g id="Group-9" transform="translate(29.000000, 36.682540)"></g>
                    <g id="Group-12" transform="translate(22.000000, 36.682540)"></g>
                    <g id="Group-15" transform="translate(34.000000, 44.682540)"></g>
                    <g id="Group-18" transform="translate(22.000000, 44.682540)"></g>
                    <g id="Group-21" transform="translate(0.000000, 0.682540)"></g>
                    <g id="Group-24" transform="translate(36.000000, 23.682540)"></g>
                    <g id="Group-27" transform="translate(33.000000, 23.682540)"></g>
                    <g id="Group-30" transform="translate(16.000000, 3.682540)"></g>
                    <g id="Group-33" transform="translate(36.000000, 3.682540)"></g>
                    <g id="Group-36" transform="translate(20.000000, 33.682540)"></g>
                </g>
            </g>
        </g>
    </g>
</svg>