<?xml version="1.0" encoding="UTF-8"?>
<svg width="56px" height="60px" viewBox="0 0 56 60" version="1.1" xmlns="http://www.w3.org/2000/svg" xmlns:xlink="http://www.w3.org/1999/xlink">
    <!-- Generator: Sketch 61.2 (89653) - https://sketch.com -->
    <title>apps</title>
    <desc>Created with Sketch.</desc>
    <g id="Page-1" stroke="none" stroke-width="1" fill="none" fill-rule="evenodd">
        <g id="Services" transform="translate(-379.000000, -433.000000)">
            <polygon id="Mask" fill="#060606" points="0 0 1366 0 1366 769 0 769"></polygon>
            <text id="enable-Seamless" opacity="0.149999991" font-family="Bison-ThickOutline, Bison" font-size="200" font-style="condensed" font-weight="700" line-spacing="170" fill="#727272">
                <tspan x="-21" y="512">enable Seamless</tspan>
            </text>
            <g id="apps" transform="translate(379.000000, 434.000000)" fill="#FFFFFF" fill-rule="nonzero">
                <path d="M41.775,28.7924528 L41.04375,28.7924528 C40.93125,28.3396226 40.7625,27.9433962 40.5375,27.6037736 L41.15625,26.9811321 C41.2125,26.9245283 41.2125,26.8679245 41.2125,26.8113208 C41.2125,26.754717 41.2125,26.6981132 41.15625,26.6415094 L40.36875,25.8490566 C40.25625,25.7358491 40.14375,25.7358491 40.03125,25.8490566 L39.4125,26.4716981 C39.075,26.245283 38.7375,26.1320755 38.34375,26.0188679 L38.34375,25.2264151 C38.34375,25.1132075 38.23125,25 38.11875,25 L36.99375,25 C36.88125,25 36.76875,25.1132075 36.76875,25.2264151 L36.76875,25.9622642 C36.375,26.0754717 35.98125,26.1886792 35.64375,26.4150943 L34.96875,25.7358491 C34.85625,25.6226415 34.74375,25.6226415 34.63125,25.7358491 L33.84375,26.5283019 C33.7875,26.5849057 33.7875,26.6415094 33.7875,26.6981132 C33.7875,26.754717 33.7875,26.8113208 33.84375,26.8679245 L34.4625,27.490566 C34.2375,27.8301887 34.06875,28.2830189 33.95625,28.7358491 L33.225,28.7358491 C33.1125,28.7358491 33,28.8490566 33,28.9622642 L33,30.0943396 C33,30.2075472 33.1125,30.3207547 33.225,30.3207547 L33.95625,30.3207547 C34.06875,30.7169811 34.18125,31.1132075 34.40625,31.4528302 L33.84375,32.0188679 C33.7875,32.0754717 33.7875,32.1320755 33.7875,32.1886792 C33.7875,32.245283 33.7875,32.3018868 33.84375,32.3584906 L34.63125,33.1509434 C34.6875,33.2075472 34.74375,33.2075472 34.8,33.2075472 C34.85625,33.2075472 34.9125,33.2075472 34.96875,33.1509434 L35.53125,32.5849057 C35.925,32.8113208 36.31875,33.0377358 36.76875,33.0943396 L36.76875,33.7735849 C36.76875,33.8867925 36.88125,34 36.99375,34 L38.11875,34 C38.23125,34 38.34375,33.8867925 38.34375,33.7735849 L38.34375,33.0943396 C38.79375,32.9811321 39.1875,32.8113208 39.525,32.5849057 L39.975,33.0377358 C40.03125,33.0943396 40.0875,33.0943396 40.14375,33.0943396 C40.2,33.0943396 40.25625,33.0943396 40.3125,33.0377358 L41.1,32.245283 C41.15625,32.1886792 41.15625,32.1320755 41.15625,32.0754717 C41.15625,32.0188679 41.15625,31.9622642 41.1,31.9056604 L40.59375,31.3962264 C40.81875,31.0566038 40.93125,30.6603774 41.04375,30.2641509 L41.775,30.2641509 C41.8875,30.2641509 42,30.1509434 42,30.0377358 L42,28.9056604 C42,28.9056604 41.8875,28.7924528 41.775,28.7924528 Z M37.5,31.8490566 C36.2625,31.8490566 35.25,30.8301887 35.25,29.5849057 C35.25,28.3396226 36.2625,27.3207547 37.5,27.3207547 C38.7375,27.3207547 39.75,28.3396226 39.75,29.5849057 C39.75,30.8301887 38.7375,31.8490566 37.5,31.8490566 Z" id="Shape"></path>
                <circle id="Oval" cx="27" cy="53" r="2"></circle>
                <path d="M49.0473373,21.0640895 L43.7218935,21.0640895 L43.7218935,4.89725331 C43.7218935,2.18311292 41.5325444,0 38.8106509,0 L15.9112426,0 C13.1893491,0 11,2.18311292 11,4.89725331 L11,53.1027467 C11,55.8168871 13.1893491,58 15.9112426,58 L38.8698225,58 C41.591716,58 43.7810651,55.8168871 43.7810651,53.1027467 L43.7810651,38.1749746 L49.0473373,38.1749746 C50.1124261,38.1749746 51,37.2309257 51,36.1098678 L51,23.1881994 C51,22.0081384 50.1715977,21.0640895 49.0473373,21.0640895 Z M12.8343195,4.89725331 C12.8343195,3.24516785 14.1952663,1.88809766 15.852071,1.88809766 L38.8106509,1.88809766 C40.4674556,1.88809766 41.8284024,3.24516785 41.8284024,4.89725331 L41.8284024,7.61139369 L12.8343195,7.61139369 L12.8343195,4.89725331 L12.8343195,4.89725331 Z M41.8284024,53.1027467 C41.8284024,54.7548321 40.4674556,56.1119023 38.8106509,56.1119023 L15.9112426,56.1119023 C14.2544379,56.1119023 12.8934911,54.7548321 12.8934911,53.1027467 L12.8934911,49.7395727 L41.887574,49.7395727 L41.887574,53.1027467 L41.8284024,53.1027467 Z M41.8284024,47.9104781 L12.8343195,47.9104781 L12.8343195,9.49949135 L41.8284024,9.49949135 L41.8284024,21.0640895 L26.5621302,21.0640895 C25.4970414,21.0640895 24.6094675,22.0081384 24.6094675,23.1291963 L24.6094675,36.0508647 C24.6094675,37.1719227 25.4970414,38.1159715 26.5621302,38.1159715 L28.8698225,38.1159715 L29.8165681,43.5442523 L35.1420119,38.1159715 L41.8284024,38.1159715 L41.8284024,47.9104781 Z M49.3431953,36.0508647 C49.3431953,36.1688708 49.2248521,36.2868769 49.0473373,36.2868769 L34.4911243,36.2868769 L30.8224852,40.0040692 L30.1715977,36.2868769 L26.5621302,36.2868769 C26.3846154,36.2868769 26.2662722,36.1688708 26.2662722,36.0508647 L26.2662722,23.1881994 C26.2662722,23.0701933 26.3846154,22.9521872 26.5621302,22.9521872 L49.0473373,22.9521872 C49.2248521,22.9521872 49.3431953,23.0701933 49.3431953,23.1881994 L49.3431953,36.0508647 Z" id="Shape" stroke="#231F20" stroke-width="0.4"></path>
                <path d="M55.4285714,16.4285714 L54.5714286,16.4285714 L54.5714286,15.5714286 C54.5714286,15.2857143 54.3428572,15 54,15 C53.6571429,15 53.4285714,15.2285714 53.4285714,15.5714286 L53.4285714,16.4285714 L52.5714286,16.4285714 C52.2857143,16.4285714 52,16.6571429 52,17 C52,17.3428571 52.2285714,17.5714286 52.5714286,17.5714286 L53.4285714,17.5714286 L53.4285714,18.4285714 C53.4285714,18.7142857 53.6571429,19 54,19 C54.3428572,19 54.5714286,18.7714286 54.5714286,18.4285714 L54.5714286,17.5714286 L55.4285714,17.5714286 C55.7142857,17.5714286 56,17.3428571 56,17 C56,16.6571429 55.7142857,16.4285714 55.4285714,16.4285714 Z" id="Path"></path>
                <path d="M7.42857145,39.4285714 L6.57142859,39.4285714 L6.57142859,38.5714286 C6.57142859,38.2857143 6.34285716,38 6.00000002,38 C5.71428573,38 5.42857145,38.2285714 5.42857145,38.5714286 L5.42857145,39.4285714 L4.57142859,39.4285714 C4.28571431,39.4285714 4.00000002,39.6571429 4.00000002,40 C4.00000002,40.2857143 4.22857145,40.5714286 4.57142859,40.5714286 L5.42857145,40.5714286 L5.42857145,41.4285714 C5.42857145,41.7142857 5.65714288,42 6.00000002,42 C6.28571431,42 6.57142859,41.7714286 6.57142859,41.4285714 L6.57142859,40.5714286 L7.42857145,40.5714286 C7.71428573,40.5714286 8.00000002,40.3428571 8.00000002,40 C7.94285716,39.6571429 7.71428573,39.4285714 7.42857145,39.4285714 Z" id="Path"></path>
                <path d="M6.20754719,11.2075472 L4.79245285,11.2075472 L4.79245285,9.79245283 C4.79245285,9.39622642 4.45283021,9 4.00000002,9 C3.60377361,9 3.20754719,9.33962264 3.20754719,9.79245283 L3.20754719,11.2075472 L1.79245285,11.2075472 C1.39622644,11.2075472 1.00000002,11.5471698 1.00000002,12 C1.00000002,12.3962264 1.33962266,12.7924528 1.79245285,12.7924528 L3.20754719,12.7924528 L3.20754719,14.2075472 C3.20754719,14.6037736 3.54716983,15 4.00000002,15 C4.39622644,15 4.79245285,14.6603774 4.79245285,14.2075472 L4.79245285,12.7924528 L6.20754719,12.7924528 C6.60377361,12.7924528 7.00000002,12.4528302 7.00000002,12 C6.94339625,11.5471698 6.60377361,11.2075472 6.20754719,11.2075472 Z" id="Path"></path>
                <circle id="Oval" cx="1.00000002" cy="27" r="1"></circle>
                <circle id="Oval" cx="50" cy="49" r="1"></circle>
                <circle id="Oval" cx="49.5" cy="9.5" r="1.5"></circle>
            </g>
        </g>
    </g>
</svg>