<?xml version="1.0" encoding="UTF-8"?>
<svg width="56px" height="51px" viewBox="0 0 56 51" version="1.1" xmlns="http://www.w3.org/2000/svg" xmlns:xlink="http://www.w3.org/1999/xlink">
    <!-- Generator: Sketch 61.2 (89653) - https://sketch.com -->
    <title>ecommerce</title>
    <desc>Created with Sketch.</desc>
    <g id="Page-1" stroke="none" stroke-width="1" fill="none" fill-rule="evenodd">
        <g id="Services" transform="translate(-243.000000, -434.000000)">
            <polygon id="Mask" fill="#060606" points="0 0 1366 0 1366 769 0 769"></polygon>
            <text id="enable-Seamless" opacity="0.149999991" font-family="Bison-ThickOutline, Bison" font-size="200" font-style="condensed" font-weight="700" line-spacing="170" fill="#727272">
                <tspan x="-21" y="512">enable Seamless</tspan>
            </text>
            <g id="ecommerce" transform="translate(243.000000, 434.000000)" fill="#FFFFFF" fill-rule="nonzero">
                <path d="M3.71815718,50.5554054 L52.0542005,50.5554054 C54.0522482,50.5554054 55.6723577,48.9204397 55.6723577,46.9031532 L55.6723577,44.088964 C55.6723577,43.6259112 55.300755,43.2509009 54.8428184,43.2509009 L53.9132791,43.2509009 L53.8132791,43.1509009 L53.8132791,3.75225225 C53.8132791,1.73496573 52.1931696,0.1 50.195122,0.1 L5.57723577,0.1 C3.5791881,0.1 1.95907859,1.73496573 1.95907859,3.75225225 L1.95907859,43.1509009 L1.85907859,43.2509009 L0.929539295,43.2509009 C0.471602758,43.2509009 0.1,43.6259112 0.1,44.088964 L0.1,46.9031532 C0.1,48.9204397 1.72010951,50.5554054 3.71815718,50.5554054 Z M3.61815718,3.75225225 C3.61815718,2.66107123 4.49506118,1.77612613 5.57723577,1.77612613 L50.195122,1.77612613 C51.2772965,1.77612613 52.1542005,2.66107123 52.1542005,3.75225225 L52.1542005,43.1509009 L52.0542005,43.2509009 L36.2520541,43.2509009 C36.0322572,43.2509483 35.8214228,43.339125 35.6658809,43.4961406 L34.0081247,45.127027 L21.6932004,45.0974142 L20.1064662,43.4961299 C19.9509349,43.339125 19.7401006,43.2509483 19.5203252,43.2509009 L3.71815718,43.2509009 L3.61815718,43.1509009 L3.61815718,3.75225225 Z M1.85907859,44.927027 L19.2065286,44.9566398 L20.7932628,46.5579242 C20.9487941,46.7149291 21.1596284,46.8031058 21.3794038,46.8031532 L34.3929324,46.8031532 C34.6127293,46.8031058 34.8235637,46.7149291 34.9791055,46.5579135 L36.6368618,44.927027 L53.9132791,44.927027 L54.0132791,45.027027 L54.0132791,46.9031532 C54.0132791,47.9943342 53.1363751,48.8792793 52.0542005,48.8792793 L3.71815718,48.8792793 C2.63598259,48.8792793 1.75907859,47.9943342 1.75907859,46.9031532 L1.75907859,45.027027 L1.85907859,44.927027 Z" id="Shape" stroke="#231F20" stroke-width="0.2"></path>
                <path d="M16.8915621,26.521994 L16.8915996,26.522019 C17.0187752,26.6065939 17.1676408,26.6517047 17.3201856,26.6517047 C17.4253501,26.6519842 17.5294553,26.6303856 17.626477,26.5880433 L24.1332011,23.7738762 C24.4197915,23.6497994 24.6058582,23.3649204 24.6058582,23.0494492 C24.6058582,22.7339781 24.4197915,22.4490991 24.1332521,22.3250444 L17.6264648,19.5108499 C17.3859471,19.4068004 17.1098158,19.4316494 16.8912439,19.5770652 C16.6722501,19.7227615 16.5402439,19.970059 16.5402439,20.2352601 L16.5402439,25.863614 C16.5402439,26.1289529 16.6723977,26.3763393 16.8915621,26.521994 Z M18.0993225,21.4300157 L21.8443869,23.0494492 L18.0993225,24.6688828 L18.0993225,21.4300157 Z" id="Shape" stroke="#231F20" stroke-width="0.3"></path>
                <path d="M9.18157182,39.6315315 L46.3631436,39.6315315 C48.3334744,39.6315315 49.9313008,38.0190532 49.9313008,36.0292793 L49.9313008,7.88738739 C49.9313008,5.89761345 48.3334744,4.28513514 46.3631436,4.28513514 L9.18157182,4.28513514 C7.21124107,4.28513514 5.61341463,5.89761345 5.61341463,7.88738739 L5.61341463,36.0292793 C5.61341463,38.0190532 7.21124107,39.6315315 9.18157182,39.6315315 Z M39.7063686,25.8605856 L38.14729,25.8605856 L38.14729,29.4628378 L37.99729,29.6128378 L36.1382114,29.6128378 L35.9882114,29.4628378 L35.9882203,27.5850789 C35.9895499,27.4629455 35.962779,27.3421822 35.9100338,27.2323171 L35.9107956,27.2338807 L34.3305788,24.0378998 L34.3506279,23.8744129 L38.9267221,18.4770594 L43.5113068,23.8743072 L43.5314456,24.0378998 L41.9506631,27.2350127 C41.895487,27.3442763 41.8663009,27.4650635 41.8654472,27.5867117 L41.8654472,29.4628378 L41.7154472,29.6128378 L39.8563686,29.6128378 L39.7063686,29.4628378 L39.7063686,25.8605856 Z M37.2177507,33.3650901 L37.2177507,34.9412162 L43.1553035,34.9412162 L43.304399,35.0747678 L43.6148651,37.8889569 L43.4657696,38.0554054 L34.3878889,38.0554054 L34.2387904,37.8889847 L34.961972,31.3225433 L35.1110705,31.188964 L42.7425881,31.188964 L42.8916889,31.3225642 L43.0980466,33.1986903 L42.9489458,33.3650901 L37.2177507,33.3650901 Z M9.18157182,5.86126126 L46.3631436,5.86126126 C47.4730351,5.86126126 48.3722222,6.76869378 48.3722222,7.88738739 L48.3722222,11.6396396 L48.2222222,11.7896396 L7.32249322,11.7896396 L7.17249322,11.6396396 L7.17249322,7.88738739 C7.17249322,6.76869378 8.0716803,5.86126126 9.18157182,5.86126126 Z M7.17249322,36.0292793 L7.17249322,12.1373874 L7.32249322,11.9873874 L48.2222222,11.9873874 L48.3722222,12.1373874 L48.3722222,36.0292793 C48.3722222,37.1479729 47.4730351,38.0554054 46.3631436,38.0554054 L45.3406504,38.0554054 L45.1915492,37.9218014 L44.3549587,30.3140631 C44.310961,29.9127979 43.9742681,29.6103934 43.575444,29.612835 L43.4245257,29.4628378 L43.4401952,27.7413464 L45.2062911,24.1870834 C45.3474905,23.9026125 45.3055476,23.5602577 45.0999057,23.3190087 L39.5261101,16.7564779 C39.3730125,16.5884182 39.1573609,16.4928701 38.931477,16.4928701 C38.7055931,16.4928701 38.4899414,16.5884182 38.340284,16.7525672 L32.7628761,23.3192109 C32.5574064,23.5602577 32.5154635,23.9026125 32.6567739,24.1873077 L34.4291328,27.8080946 L34.4291328,29.4628378 L34.2791224,29.6128378 C33.8820786,29.6128104 33.5480844,29.9146018 33.50426,30.314218 L32.6620974,37.9219094 L32.5130081,38.0554054 L9.18157182,38.0554054 C8.0716803,38.0554054 7.17249322,37.1479729 7.17249322,36.0292793 Z" id="Shape" stroke="#060606" stroke-width="0.3"></path>
                <rect id="Rectangle" stroke="#231F20" stroke-width="0.3" x="38.3939024" y="22.2040541" width="1.55907859" height="1.57612613"></rect>
                <path d="M28.1517615,16.6905405 L10.4905149,16.6905405 C10.0602953,16.6905405 9.71097561,17.0430634 9.71097561,17.4786036 L9.71097561,30.6114865 C9.71097561,31.0470267 10.0602953,31.3995495 10.4905149,31.3995495 L28.1517615,31.3995495 C28.5819811,31.3995495 28.9313008,31.0470267 28.9313008,30.6114865 L28.9313008,17.4786036 C28.9313008,17.0430634 28.5819811,16.6905405 28.1517615,16.6905405 Z M27.2222222,29.8234234 L11.4200542,29.8234234 L11.2700542,29.6734234 L11.2700542,18.4166667 L11.4200542,18.2666667 L27.2222222,18.2666667 L27.3722222,18.4166667 L27.3722222,29.6734234 L27.2222222,29.8234234 Z" id="Shape" stroke="#231F20" stroke-width="0.3"></path>
                <rect id="Rectangle" stroke="#231F20" stroke-width="0.3" x="11.0768293" y="33.2310811" width="15.502168" height="1.57612613"></rect>
            </g>
        </g>
    </g>
</svg>